<?xml version="1.0" encoding="UTF-8" standalone="no"?>
<!-- Created with Inkscape (http://www.inkscape.org/) -->

<svg
   width="256"
   height="256"
   viewBox="0 0 67.733332 67.733333"
   version="1.1"
   id="svg1"
   inkscape:version="1.3 (0e150ed6c4, 2023-07-21)"
   sodipodi:docname="mouse.svg"
   inkscape:export-filename="mouse-left.png"
   inkscape:export-xdpi="96"
   inkscape:export-ydpi="96"
   xmlns:inkscape="http://www.inkscape.org/namespaces/inkscape"
   xmlns:sodipodi="http://sodipodi.sourceforge.net/DTD/sodipodi-0.dtd"
   xmlns="http://www.w3.org/2000/svg"
   xmlns:svg="http://www.w3.org/2000/svg">
  <sodipodi:namedview
     id="namedview1"
     pagecolor="#505050"
     bordercolor="#eeeeee"
     borderopacity="1"
     inkscape:showpageshadow="0"
     inkscape:pageopacity="0"
     inkscape:pagecheckerboard="0"
     inkscape:deskcolor="#505050"
     inkscape:document-units="mm"
     inkscape:zoom="2.8970539"
     inkscape:cx="80.426533"
     inkscape:cy="128.23372"
     inkscape:window-width="1920"
     inkscape:window-height="1009"
     inkscape:window-x="-8"
     inkscape:window-y="-8"
     inkscape:window-maximized="1"
     inkscape:current-layer="layer1" />
  <defs
     id="defs1" />
  <g
     inkscape:label="mouse"
     inkscape:groupmode="layer"
     id="layer1">
    <path
       id="path1"
       style="fill:#c4c6b8;stroke-width:13.931;stroke-linecap:round;stroke-linejoin:round;paint-order:stroke fill markers"
       d="m 56.904198,33.866665 c 0,22.46098 -3.464624,32.89706 -23.037533,32.89706 -20.394864,0 -23.037533,-9.340139 -23.037533,-32.89706 0,-18.168545 10.314255,-32.89706051 23.037533,-32.89706051 12.723278,0 23.037533,14.72851551 23.037533,32.89706051 z"
       sodipodi:nodetypes="sssss" />
    <path
       id="path2"
       style="fill:#c57835;stroke-width:14.0922;stroke-linecap:round;stroke-linejoin:round;paint-order:stroke fill markers;fill-opacity:0.2"
       d="m 37.379172,15.523257 c 0,-5.9088732 -1.572602,-8.0512248 -3.512505,-8.0512244 -1.939903,-4e-7 -3.512505,2.1423512 -3.512505,8.0512244 0,5.908874 1.572602,7.663752 3.512505,7.663752 1.939903,0 3.512505,-1.754878 3.512505,-7.663752 z"
       sodipodi:nodetypes="sssss"
       inkscape:label="middle" />
    <path
       id="ellipse3"
       style="fill:#c57835;stroke-width:14.3286;stroke-linecap:round;stroke-linejoin:round;paint-order:stroke fill markers;fill-opacity:0.2"
       d="M 51.385793,15.832512 C 49.424996,11.440811 43.656795,4.1691731 41.622874,4.1691728 c -3.757505,-4e-7 -3.290097,6.3855492 -3.290097,12.2119062 0,5.826356 -1.059449,10.58161 4.630662,10.549552 8.832261,-0.04976 13.822006,0.995769 8.422354,-11.098119 z"
       sodipodi:nodetypes="sssss"
       inkscape:label="right" />
    <path
       id="path3"
       style="fill:#c57835;stroke-width:14.5695;stroke-linecap:round;stroke-linejoin:round;paint-order:stroke fill markers;fill-opacity:1"
       d="M 16.306711,15.837221 C 18.300466,11.3717 24.165626,3.9778327 26.233735,3.9778323 c 3.820665,-4e-7 3.3454,6.4928847 3.3454,12.4171777 0,5.924291 1.077258,10.759477 -4.708499,10.726879 -8.980722,-0.0506 -14.05434,1.012507 -8.563925,-11.284668 z"
       sodipodi:nodetypes="sssss"
       inkscape:label="left" />
  </g>
</svg>
